<svg width="60" height="60" viewBox="0 0 60 60" fill="none" xmlns="http://www.w3.org/2000/svg">
<path d="M49.8267 44.445C49.8317 44.9167 49.71 45.5333 49.5833 46.0417C48.6983 49.6167 44.7683 53.6283 39.2367 53.2633C34.2233 52.9333 30.14 50.5267 30.14 47.1517C30.14 43.7767 34.2133 41.04 39.2367 41.04C44.26 41.04 49.795 41.07 49.8267 44.445Z" fill="#D05380"/>
<path d="M39.2367 41.6067C36.5383 41.6067 30.38 42.3533 28.9667 42.3533C26.47 42.3533 24.445 43.92 24.445 45.8533C24.445 46.7833 24.9217 47.6233 25.685 48.25C25.685 48.25 27.3617 49.9317 30.3817 49.125C31.7033 48.7717 33.8533 46.1483 37.6383 45.7317C39.5233 45.5233 43.055 46.9817 49.2617 47.0167C49.5283 46.4433 49.5833 46.045 49.5833 46.045C49.5833 42.6667 44.26 41.6067 39.2367 41.6067Z" fill="#BF3767"/>
<path d="M49.5833 46.0417C49.5833 46.0417 53.2233 45.3033 55.4867 42.3267C58.125 38.855 57.7783 35.14 57.7783 35.14C60.4517 30.14 56.945 25.4517 56.945 25.4517C56.5967 20.1733 53.3333 17.9867 53.3333 17.9867C51.215 12.9517 46.5283 11.5983 46.5283 11.5983C42.8483 7.29333 36.32 7.43166 36.32 7.43166C36.32 7.43166 30.2033 5.19 21.8067 7.71C20.4183 8.12666 15.765 9.09833 12.3617 11.1817C1.635 17.7483 0.823332 27.9883 0.973332 29.6533C1.805 38.9583 8.33333 40.625 12.5 41.5967C13.4717 44.235 17.0483 49.0967 23.4717 47.2917C31.3883 45.9033 34.7217 43.5417 36.6667 43.5417C38.6117 43.5417 44.0283 45.625 49.5833 46.0417Z" fill="white"/>
<path d="M29.5617 31.08C33.4417 28.9883 35.545 29.1833 37.4017 29.3517C37.9917 29.405 38.55 29.4467 39.115 29.4433C42.4217 29.3683 45.1 27.975 46.285 26.6267C46.4209 26.4591 46.4867 26.2455 46.4685 26.0305C46.4504 25.8156 46.3498 25.616 46.1877 25.4736C46.0257 25.3311 45.8149 25.2569 45.5994 25.2665C45.3838 25.2761 45.1804 25.3688 45.0317 25.525C44.1183 26.565 41.8667 27.7133 39.0767 27.7767C38.5767 27.7917 38.075 27.7417 37.555 27.6933C35.5633 27.5083 33.09 27.2817 28.77 29.6133C27.6617 30.2117 26.1417 30.4333 24.495 30.6C20.8333 25.315 23.0367 20.7117 23.6667 19.615C23.7283 19.6183 23.7883 19.6383 23.8517 19.6383C24.5183 19.6383 25.1883 19.475 25.795 19.1317C25.9798 19.0192 26.1136 18.8392 26.1681 18.6298C26.2226 18.4204 26.1935 18.198 26.087 18.0097C25.9805 17.8213 25.8049 17.6818 25.5974 17.6206C25.3899 17.5594 25.1667 17.5813 24.975 17.6817C24.4507 17.9703 23.8368 18.0505 23.2559 17.9062C22.675 17.7619 22.17 17.4038 21.8417 16.9033C21.7177 16.7286 21.5312 16.6083 21.3209 16.5674C21.1106 16.5265 20.8926 16.5682 20.7123 16.6838C20.5319 16.7994 20.403 16.98 20.3523 17.1882C20.3016 17.3964 20.333 17.6161 20.44 17.8017C20.835 18.42 21.3917 18.885 22.02 19.1967C21.1517 20.96 19.5033 25.5967 22.64 30.7817C20.4333 30.9983 18.2233 31.31 16.4933 32.425C15.2774 33.2217 14.2168 34.2332 13.3633 35.41C12.315 35.23 8.47667 34.285 7.80667 30.025C8.22334 29.7017 8.56001 29.275 8.76834 28.7483C8.80861 28.6466 8.82844 28.5379 8.8267 28.4284C8.82496 28.319 8.80168 28.211 8.75819 28.1105C8.71471 28.0101 8.65186 27.9192 8.57324 27.843C8.49463 27.7669 8.40178 27.7069 8.30001 27.6667C8.19823 27.6264 8.08952 27.6066 7.98008 27.6083C7.87064 27.61 7.76262 27.6333 7.66218 27.6768C7.56174 27.7203 7.47084 27.7832 7.39469 27.8618C7.31854 27.9404 7.25861 28.0332 7.21834 28.135C7.15531 28.3102 7.05502 28.4696 6.92438 28.6023C6.79375 28.7349 6.63588 28.8376 6.46167 28.9033C6.28515 28.962 6.09805 28.9819 5.91312 28.9618C5.7282 28.9417 5.54978 28.8819 5.39001 28.7867C5.29436 28.7335 5.18918 28.6997 5.08046 28.6871C4.97174 28.6746 4.86162 28.6836 4.75638 28.7136C4.54383 28.7743 4.36409 28.9168 4.25667 29.11C4.14926 29.3032 4.12298 29.5311 4.18362 29.7436C4.24426 29.9562 4.38684 30.1359 4.58001 30.2433C5.05334 30.5067 5.56001 30.64 6.06334 30.64C6.12501 30.64 6.18334 30.6117 6.24501 30.6083C7.03834 34.63 10.2167 36.3967 12.465 36.9317C12.1706 37.5581 11.9841 38.2298 11.9133 38.9183C11.8939 39.1385 11.9627 39.3573 12.1046 39.5267C12.2465 39.6961 12.4499 39.8022 12.67 39.8217L12.745 39.825C12.9533 39.825 13.154 39.7469 13.3077 39.6063C13.4613 39.4656 13.5567 39.2725 13.575 39.065C13.755 37.0433 15.6833 34.9317 17.3967 33.8233C19.0033 32.7883 21.355 32.57 23.6317 32.3583C25.84 32.1567 27.9267 31.9633 29.5617 31.08ZM51.005 28.5733C50.9525 28.6694 50.9194 28.7749 50.9076 28.8838C50.8959 28.9927 50.9057 29.1028 50.9365 29.2079C50.9673 29.3129 51.0185 29.4109 51.0871 29.4962C51.1558 29.5815 51.2406 29.6525 51.3367 29.705C51.4328 29.7575 51.5382 29.7906 51.6471 29.8024C51.756 29.8141 51.8661 29.8043 51.9712 29.7735C52.1834 29.7113 52.3623 29.5674 52.4683 29.3733C52.5 29.3167 55.5383 23.625 49.85 19.8C49.6666 19.6767 49.4416 19.6313 49.2247 19.6738C49.0078 19.7163 48.8167 19.8432 48.6933 20.0267C48.57 20.2101 48.5246 20.435 48.5671 20.6519C48.6096 20.8689 48.7366 21.06 48.92 21.1833C53.3267 24.1467 51.1017 28.3933 51.005 28.5733ZM16.46 15.1167C16.5923 15.1171 16.7227 15.0859 16.8405 15.0256C16.9582 14.9652 17.0598 14.8776 17.1367 14.77C19.5533 11.4083 22.9 12.5583 23.0417 12.6117C23.2469 12.6794 23.4705 12.6648 23.6652 12.5708C23.8598 12.4768 24.0104 12.3109 24.085 12.108C24.1596 11.9051 24.1525 11.6812 24.0651 11.4835C23.9777 11.2858 23.8169 11.1297 23.6167 11.0483C22.0167 10.455 18.3217 10.2683 15.7833 13.7983C15.6942 13.9228 15.6412 14.0695 15.6299 14.2222C15.6187 14.3748 15.6497 14.5277 15.7196 14.6639C15.7895 14.8001 15.8956 14.9144 16.0262 14.9943C16.1568 15.0741 16.3069 15.1165 16.46 15.1167ZM38.2467 11.97C41.955 11.6683 43.6417 14.3567 43.7183 14.4833C43.8304 14.6741 44.0136 14.8125 44.2277 14.8681C44.3337 14.8957 44.4441 14.9021 44.5526 14.8869C44.6611 14.8718 44.7656 14.8355 44.86 14.78C44.9545 14.7245 45.037 14.651 45.1031 14.5636C45.1691 14.4762 45.2172 14.3766 45.2448 14.2706C45.2723 14.1646 45.2787 14.0542 45.2636 13.9457C45.2485 13.8372 45.2122 13.7328 45.1567 13.6383C45.0667 13.4867 42.9233 9.94167 38.1167 10.3083C38.0076 10.3169 37.9012 10.3468 37.8037 10.3965C37.7061 10.4461 37.6193 10.5145 37.5482 10.5976C37.4046 10.7656 37.3336 10.9838 37.3508 11.2042C37.3681 11.4245 37.4721 11.629 37.6401 11.7726C37.8081 11.9162 38.0263 11.9872 38.2467 11.97ZM53.4967 36.3217C53.0867 36.2983 52.635 36.6233 52.5983 37.0833C52.595 37.1133 52.33 39.9483 49.415 40.9067C49.2244 40.9666 49.0617 41.0931 48.9567 41.263C48.8517 41.433 48.8114 41.6351 48.8432 41.8323C48.875 42.0296 48.9767 42.2088 49.1297 42.3372C49.2828 42.4656 49.4769 42.5346 49.6767 42.5317C49.765 42.5317 49.8528 42.5176 49.9367 42.49C53.89 41.1933 54.2467 37.3833 54.26 37.2217C54.2775 37.0012 54.2071 36.7828 54.064 36.6142C53.921 36.4455 53.717 36.3404 53.4967 36.3217Z" fill="#E5779E"/>
<path d="M12.245 28.2233C12.2122 28.3303 12.2013 28.4427 12.2129 28.5539C12.2245 28.6652 12.2583 28.7729 12.3124 28.8708C12.3666 28.9687 12.4398 29.0547 12.5279 29.1236C12.6159 29.1926 12.7169 29.2431 12.8249 29.2722C12.9329 29.3013 13.0457 29.3084 13.1564 29.293C13.2672 29.2776 13.3738 29.2401 13.4697 29.1826C13.5657 29.1252 13.6491 29.049 13.715 28.9587C13.7809 28.8683 13.828 28.7656 13.8533 28.6567C14.0138 28.0792 14.3869 27.5839 14.8977 27.2704C15.4085 26.9568 16.0191 26.8483 16.6067 26.9667C16.7138 26.9891 16.8243 26.9902 16.9319 26.9699C17.0394 26.9497 17.142 26.9084 17.2336 26.8485C17.3252 26.7886 17.4041 26.7113 17.4659 26.6209C17.5276 26.5305 17.5709 26.4288 17.5933 26.3217C17.6158 26.2145 17.6169 26.104 17.5966 25.9965C17.5763 25.8889 17.5351 25.7864 17.4752 25.6948C17.4153 25.6031 17.3379 25.5242 17.2475 25.4625C17.1571 25.4008 17.0555 25.3574 16.9483 25.335C16.2548 25.1943 15.536 25.2438 14.8683 25.4783C12.925 22.155 13.3033 18.8783 13.3083 18.8433C13.3368 18.6245 13.2776 18.4032 13.1437 18.2278C13.0098 18.0523 12.812 17.9369 12.5933 17.9067C12.375 17.8786 12.1545 17.9375 11.9792 18.0706C11.804 18.2038 11.6881 18.4005 11.6567 18.6183C11.635 18.78 11.19 22.4783 13.4283 26.3083C12.8569 26.8188 12.4459 27.484 12.245 28.2233ZM30.8767 24.1067C31.2094 23.8039 31.6443 23.6383 32.0941 23.6429C32.5439 23.6475 32.9753 23.8222 33.3017 24.1317C33.4608 24.2847 33.6739 24.3686 33.8946 24.3652C34.1153 24.3617 34.3257 24.2712 34.48 24.1133C34.634 23.9549 34.7188 23.7417 34.7157 23.5207C34.7126 23.2997 34.6218 23.0891 34.4633 22.935C34.0869 22.5769 33.632 22.3115 33.135 22.16C33.6283 20.4667 33.4333 19.715 32.975 18.3067C32.8843 18.0311 32.797 17.7544 32.7133 17.4767L32.6633 17.31C32.0567 15.2967 31.655 13.9683 32.8083 12.0933C32.9241 11.905 32.9604 11.6784 32.9091 11.4634C32.8579 11.2484 32.7233 11.0625 32.535 10.9467C32.3467 10.8309 32.1201 10.7946 31.9051 10.8459C31.69 10.8971 31.5041 11.0317 31.3883 11.22C29.8417 13.7333 30.41 15.615 31.0683 17.7933L31.1183 17.96C31.2167 18.2833 31.3067 18.5667 31.39 18.8217C31.8017 20.09 31.9267 20.515 31.4233 22.0483C30.7939 22.1629 30.21 22.4542 29.74 22.8883C29.5842 23.0404 29.4941 23.2475 29.489 23.4652C29.484 23.6829 29.5643 23.8939 29.7128 24.0531C29.8614 24.2123 30.0663 24.307 30.2838 24.3171C30.5013 24.3271 30.7141 24.2516 30.8767 24.1067ZM41.485 19.1317C41.9799 19.1332 42.469 19.0244 42.9167 18.8133C43.1167 18.7192 43.2711 18.5494 43.346 18.3414C43.4208 18.1334 43.41 17.9042 43.3158 17.7042C43.2217 17.5042 43.0519 17.3497 42.8439 17.2749C42.6359 17.2 42.4067 17.2109 42.2067 17.305C41.797 17.4922 41.3317 17.5177 40.904 17.3765C40.4763 17.2353 40.1177 16.9377 39.9 16.5433C39.8505 16.4432 39.7813 16.3541 39.6966 16.2812C39.612 16.2083 39.5135 16.1532 39.4071 16.1192C39.3007 16.0851 39.1885 16.0728 39.0773 16.0829C38.966 16.0931 38.858 16.1255 38.7595 16.1783C38.661 16.231 38.5742 16.303 38.5041 16.39C38.434 16.477 38.3821 16.5772 38.3515 16.6847C38.321 16.7921 38.3123 16.9046 38.3261 17.0155C38.3398 17.1263 38.3757 17.2333 38.4317 17.33C38.7317 17.89 39.1783 18.3317 39.6983 18.6383C38.8033 20.8133 39.3117 23.1233 39.7267 24.3483C39.7584 24.4558 39.8115 24.5558 39.8828 24.6423C39.9541 24.7288 40.0421 24.8001 40.1415 24.8518C40.241 24.9035 40.3498 24.9346 40.4616 24.9432C40.5733 24.9519 40.6857 24.9379 40.7919 24.9021C40.8981 24.8663 40.996 24.8095 41.0798 24.735C41.1635 24.6605 41.2314 24.5698 41.2793 24.4685C41.3272 24.3672 41.3542 24.2572 41.3586 24.1452C41.363 24.0332 41.3448 23.9215 41.305 23.8167C41.025 22.9867 40.4817 20.89 41.3017 19.1067C41.365 19.11 41.4233 19.1317 41.485 19.1317ZM49.48 34.8467C49.4736 34.7372 49.4456 34.6301 49.3976 34.5316C49.3495 34.4331 49.2824 34.345 49.2001 34.2726C49.1178 34.2002 49.0219 34.1449 48.918 34.1098C48.8141 34.0748 48.7044 34.0607 48.595 34.0683C48.1954 34.0959 47.7942 34.0444 47.4146 33.9165C47.035 33.7887 46.6843 33.5871 46.3828 33.3234C46.0813 33.0596 45.8348 32.7389 45.6576 32.3797C45.4804 32.0205 45.3758 31.6298 45.35 31.23C45.3313 31.0109 45.2282 30.8076 45.0624 30.663C44.8967 30.5184 44.6813 30.4438 44.4617 30.455C44.2414 30.4708 44.0363 30.5731 43.8911 30.7395C43.746 30.9059 43.6725 31.123 43.6867 31.3433C43.755 32.3267 44.13 33.2133 44.7 33.935C43.36 35.5117 41.605 35.96 40.6267 36.075C39.7617 36.1783 39.005 36.09 38.13 35.9867C37.3283 35.895 36.4217 35.79 35.3 35.8233L35.2917 35.825C35.2583 35.3483 35.145 34.6533 34.7833 34.075C34.659 33.9037 34.4743 33.7861 34.2665 33.7458C34.0587 33.7056 33.8434 33.7457 33.6641 33.8581C33.4848 33.9705 33.3549 34.1468 33.3006 34.3514C33.2463 34.5559 33.2717 34.7735 33.3717 34.96C33.595 35.3183 33.6367 35.89 33.6367 36.1683C32.7967 36.47 32.07 36.9133 31.4133 37.3417C30.24 38.105 29.315 38.7083 27.9233 38.395C26.6633 38.1067 25.4017 38.0483 24.3317 38.1983C24.165 37.78 23.9017 37.28 23.495 36.895C23.3343 36.7432 23.1199 36.6614 22.8989 36.6676C22.6779 36.6739 22.4685 36.7677 22.3167 36.9283C22.1648 37.089 22.083 37.3034 22.0893 37.5244C22.0955 37.7454 22.1893 37.9548 22.35 38.1067C22.4933 38.2417 22.6067 38.4383 22.6983 38.635C20.86 39.3917 19.9383 40.6567 19.895 40.7183C19.8066 40.8428 19.7541 40.9892 19.7434 41.1414C19.7326 41.2937 19.764 41.446 19.8341 41.5817C19.9041 41.7173 20.0101 41.831 20.1405 41.9104C20.2709 41.9898 20.4207 42.0317 20.5733 42.0317C20.7051 42.032 20.835 42.0012 20.9526 41.9419C21.0702 41.8825 21.1721 41.7962 21.25 41.69C21.2583 41.6767 22.1733 40.4517 23.9783 39.9567C24.9117 39.7 26.25 39.7217 27.555 40.0183C27.92 40.1017 28.2583 40.13 28.5867 40.135C28.7417 40.4983 28.8017 40.93 28.81 41.09C28.8223 41.3024 28.9152 41.5021 29.0698 41.6483C29.2244 41.7945 29.4289 41.8762 29.6417 41.8767L29.6867 41.875C29.9066 41.8634 30.1129 41.7651 30.2607 41.6018C30.4084 41.4385 30.4854 41.2233 30.475 41.0033C30.4472 40.6151 30.3745 40.2315 30.2583 39.86C31.0267 39.5817 31.695 39.1467 32.3233 38.7383C33.2767 38.1167 34.1783 37.5283 35.3567 37.49C36.3433 37.455 37.1567 37.55 37.9417 37.6417C38.7317 37.7333 39.5083 37.7933 40.365 37.7433C40.5167 38.165 40.505 38.7283 40.4817 38.9167C40.4676 39.034 40.4784 39.153 40.5136 39.2659C40.5487 39.3787 40.6073 39.4829 40.6855 39.5715C40.7637 39.6601 40.8598 39.7312 40.9674 39.78C41.0751 39.8289 41.1918 39.8544 41.31 39.855C41.512 39.8547 41.7071 39.781 41.8588 39.6476C42.0106 39.5143 42.1087 39.3303 42.135 39.13C42.196 38.5834 42.1628 38.0304 42.0367 37.495C43.5573 37.0916 44.9199 36.2368 45.945 35.0433C46.7712 35.5537 47.7358 35.7943 48.705 35.7317C48.814 35.7245 48.9205 35.6959 49.0185 35.6475C49.1164 35.5991 49.2039 35.5319 49.2758 35.4497C49.3478 35.3675 49.4029 35.272 49.4379 35.1685C49.4729 35.065 49.4872 34.9557 49.48 34.8467Z" fill="#E5779E"/>
</svg>
