<svg width="280" height="255" viewBox="0 0 280 255" fill="none" xmlns="http://www.w3.org/2000/svg">
<rect width="280" height="255" fill="#FFD8E4"/>
<path d="M181.59 87.9102L141.77 74.3398C141.289 74.1758 140.645 74.0938 140 74.0938C139.355 74.0938 138.711 74.1758 138.23 74.3398L98.4102 87.9102C97.4375 88.2383 96.6406 89.3633 96.6406 90.3945V146.926C96.6406 147.957 97.3086 149.316 98.1172 149.961L138.512 181.438C138.922 181.754 139.449 181.918 139.988 181.918C140.527 181.918 141.066 181.754 141.465 181.438L181.859 149.961C182.668 149.328 183.336 147.969 183.336 146.926V90.3945C183.359 89.3633 182.562 88.25 181.59 87.9102ZM174.922 144.676L140 171.887L105.078 144.676V94.5664L140 82.6602L174.922 94.5664V144.676ZM127.367 121.121C127.016 120.641 126.453 120.348 125.844 120.348H119.375C118.613 120.348 118.168 121.215 118.613 121.836L133.426 142.227C133.601 142.466 133.83 142.661 134.095 142.796C134.36 142.93 134.652 143 134.949 143C135.246 143 135.539 142.93 135.804 142.796C136.068 142.661 136.298 142.466 136.473 142.227L161.387 107.926C161.832 107.305 161.387 106.438 160.625 106.438H154.156C153.559 106.438 152.984 106.73 152.633 107.211L134.949 131.563L127.367 121.121Z" fill="#D05380"/>
</svg>
