<svg width="280" height="255" viewBox="0 0 280 255" fill="none" xmlns="http://www.w3.org/2000/svg">
<rect width="280" height="255" fill="#FFD8E4"/>
<path d="M179.653 156.89C179.663 157.833 179.42 159.067 179.167 160.083C177.397 167.233 169.537 175.257 158.473 174.527C148.447 173.867 140.28 169.053 140.28 162.303C140.28 155.553 148.427 150.08 158.473 150.08C168.52 150.08 179.59 150.14 179.653 156.89Z" fill="#D05380"/>
<path d="M158.473 151.213C153.077 151.213 140.76 152.707 137.933 152.707C132.94 152.707 128.89 155.84 128.89 159.707C128.89 161.567 129.843 163.247 131.37 164.5C131.37 164.5 134.723 167.863 140.763 166.25C143.407 165.543 147.707 160.297 155.277 159.463C159.047 159.047 166.11 161.963 178.523 162.033C179.057 160.887 179.167 160.09 179.167 160.09C179.167 153.333 168.52 151.213 158.473 151.213Z" fill="#BF3767"/>
<path d="M179.167 160.083C179.167 160.083 186.447 158.607 190.973 152.653C196.25 145.71 195.557 138.28 195.557 138.28C200.903 128.28 193.89 118.903 193.89 118.903C193.193 108.347 186.667 103.973 186.667 103.973C182.43 93.9034 173.057 91.1967 173.057 91.1967C165.697 82.5867 152.64 82.8634 152.64 82.8634C152.64 82.8634 140.407 78.38 123.613 83.42C120.837 84.2534 111.53 86.1967 104.723 90.3634C83.27 103.497 81.6467 123.977 81.9467 127.307C83.61 145.917 96.6667 149.25 105 151.193C106.943 156.47 114.097 166.193 126.943 162.583C142.777 159.807 149.443 155.083 153.333 155.083C157.223 155.083 168.057 159.25 179.167 160.083Z" fill="white"/>
<path d="M139.123 130.16C146.883 125.977 151.09 126.367 154.803 126.703C155.983 126.81 157.1 126.893 158.23 126.887C164.843 126.737 170.2 123.95 172.57 121.253C172.842 120.918 172.973 120.491 172.937 120.061C172.901 119.631 172.7 119.232 172.375 118.947C172.051 118.662 171.63 118.514 171.199 118.533C170.768 118.552 170.361 118.737 170.063 119.05C168.237 121.13 163.733 123.427 158.153 123.553C157.153 123.583 156.15 123.483 155.11 123.387C151.127 123.017 146.18 122.563 137.54 127.227C135.323 128.423 132.283 128.867 128.99 129.2C121.667 118.63 126.073 109.423 127.333 107.23C127.457 107.237 127.577 107.277 127.703 107.277C129.037 107.277 130.377 106.95 131.59 106.263C131.96 106.038 132.227 105.678 132.336 105.26C132.445 104.841 132.387 104.396 132.174 104.019C131.961 103.643 131.61 103.364 131.195 103.241C130.78 103.119 130.333 103.163 129.95 103.363C128.901 103.941 127.674 104.101 126.512 103.812C125.35 103.524 124.34 102.808 123.683 101.807C123.435 101.457 123.062 101.216 122.642 101.135C122.221 101.053 121.785 101.136 121.425 101.368C121.064 101.599 120.806 101.96 120.705 102.376C120.603 102.793 120.666 103.232 120.88 103.603C121.67 104.84 122.783 105.77 124.04 106.393C122.303 109.92 119.007 119.193 125.28 129.563C120.867 129.997 116.447 130.62 112.987 132.85C110.555 134.443 108.434 136.466 106.727 138.82C104.63 138.46 96.9533 136.57 95.6133 128.05C96.4467 127.403 97.12 126.55 97.5367 125.497C97.6172 125.293 97.6569 125.076 97.6534 124.857C97.6499 124.638 97.6034 124.422 97.5164 124.221C97.4294 124.02 97.3037 123.838 97.1465 123.686C96.9893 123.534 96.8036 123.414 96.6 123.333C96.3965 123.253 96.179 123.213 95.9602 123.217C95.7413 123.22 95.5252 123.267 95.3244 123.354C95.1235 123.441 94.9417 123.566 94.7894 123.724C94.6371 123.881 94.5172 124.066 94.4367 124.27C94.3106 124.62 94.11 124.939 93.8488 125.205C93.5875 125.47 93.2718 125.675 92.9233 125.807C92.5703 125.924 92.1961 125.964 91.8262 125.924C91.4564 125.883 91.0996 125.764 90.78 125.573C90.5887 125.467 90.3784 125.399 90.1609 125.374C89.9435 125.349 89.7232 125.367 89.5128 125.427C89.0877 125.548 88.7282 125.834 88.5133 126.22C88.2985 126.606 88.246 127.062 88.3672 127.487C88.4885 127.912 88.7737 128.272 89.16 128.487C90.1067 129.013 91.12 129.28 92.1267 129.28C92.25 129.28 92.3667 129.223 92.49 129.217C94.0767 137.26 100.433 140.793 104.93 141.863C104.341 143.116 103.968 144.46 103.827 145.837C103.788 146.277 103.925 146.715 104.209 147.053C104.493 147.392 104.9 147.604 105.34 147.643L105.49 147.65C105.907 147.65 106.308 147.494 106.615 147.213C106.923 146.931 107.113 146.545 107.15 146.13C107.51 142.087 111.367 137.863 114.793 135.647C118.007 133.577 122.71 133.14 127.263 132.717C131.68 132.313 135.853 131.927 139.123 130.16ZM182.01 125.147C181.905 125.339 181.839 125.55 181.815 125.768C181.792 125.985 181.811 126.206 181.873 126.416C181.935 126.626 182.037 126.822 182.174 126.992C182.312 127.163 182.481 127.305 182.673 127.41C182.866 127.515 183.076 127.581 183.294 127.605C183.512 127.628 183.732 127.609 183.942 127.547C184.367 127.423 184.725 127.135 184.937 126.747C185 126.633 191.077 115.25 179.7 107.6C179.333 107.353 178.883 107.263 178.449 107.348C178.016 107.433 177.633 107.686 177.387 108.053C177.14 108.42 177.049 108.87 177.134 109.304C177.219 109.738 177.473 110.12 177.84 110.367C186.653 116.293 182.203 124.787 182.01 125.147ZM112.92 98.2333C113.185 98.2342 113.445 98.1717 113.681 98.0511C113.916 97.9305 114.12 97.7552 114.273 97.54C119.107 90.8166 125.8 93.1166 126.083 93.2233C126.494 93.3588 126.941 93.3295 127.33 93.1415C127.72 92.9536 128.021 92.6217 128.17 92.216C128.319 91.8102 128.305 91.3623 128.13 90.9669C127.955 90.5715 127.634 90.2594 127.233 90.0966C124.033 88.91 116.643 88.5366 111.567 95.5966C111.388 95.8456 111.282 96.1389 111.26 96.4443C111.237 96.7496 111.299 97.0553 111.439 97.3277C111.579 97.6001 111.791 97.8287 112.052 97.9885C112.314 98.1482 112.614 98.2329 112.92 98.2333ZM156.493 91.94C163.91 91.3366 167.283 96.7133 167.437 96.9666C167.661 97.3481 168.027 97.6249 168.455 97.7362C168.667 97.7913 168.888 97.8041 169.105 97.7739C169.322 97.7436 169.531 97.6709 169.72 97.56C169.909 97.449 170.074 97.3019 170.206 97.1271C170.338 96.9523 170.434 96.7532 170.49 96.5412C170.545 96.3292 170.557 96.1084 170.527 95.8914C170.497 95.6744 170.424 95.4655 170.313 95.2766C170.133 94.9733 165.847 87.8833 156.233 88.6166C156.015 88.6337 155.802 88.6936 155.607 88.7929C155.412 88.8922 155.239 89.0289 155.096 89.1953C154.809 89.5313 154.667 89.9676 154.702 90.4083C154.736 90.849 154.944 91.258 155.28 91.5452C155.616 91.8325 156.053 91.9745 156.493 91.94ZM186.993 140.643C186.173 140.597 185.27 141.247 185.197 142.167C185.19 142.227 184.66 147.897 178.83 149.813C178.449 149.933 178.123 150.186 177.913 150.526C177.704 150.866 177.623 151.27 177.686 151.665C177.75 152.059 177.953 152.418 178.259 152.674C178.566 152.931 178.954 153.069 179.353 153.063C179.53 153.063 179.706 153.035 179.873 152.98C187.78 150.387 188.493 142.767 188.52 142.443C188.555 142.002 188.414 141.566 188.128 141.228C187.842 140.891 187.434 140.681 186.993 140.643Z" fill="#E5779E"/>
<path d="M104.49 124.447C104.424 124.661 104.403 124.885 104.426 125.108C104.449 125.33 104.517 125.546 104.625 125.742C104.733 125.937 104.88 126.109 105.056 126.247C105.232 126.385 105.434 126.486 105.65 126.544C105.866 126.603 106.091 126.617 106.313 126.586C106.534 126.555 106.748 126.48 106.939 126.365C107.131 126.25 107.298 126.098 107.43 125.917C107.562 125.737 107.656 125.531 107.707 125.313C108.028 124.158 108.774 123.168 109.796 122.541C110.817 121.914 112.038 121.697 113.213 121.933C113.428 121.978 113.649 121.98 113.864 121.94C114.079 121.899 114.284 121.817 114.467 121.697C114.65 121.577 114.808 121.423 114.932 121.242C115.055 121.061 115.142 120.858 115.187 120.643C115.232 120.429 115.234 120.208 115.193 119.993C115.153 119.778 115.07 119.573 114.95 119.389C114.831 119.206 114.676 119.048 114.495 118.925C114.314 118.801 114.111 118.715 113.897 118.67C112.51 118.389 111.072 118.488 109.737 118.957C105.85 112.31 106.607 105.757 106.617 105.687C106.674 105.249 106.555 104.806 106.287 104.456C106.02 104.105 105.624 103.874 105.187 103.813C104.75 103.757 104.309 103.875 103.958 104.141C103.608 104.408 103.376 104.801 103.313 105.237C103.27 105.56 102.38 112.957 106.857 120.617C105.714 121.637 104.892 122.968 104.49 124.447ZM141.753 116.213C142.419 115.608 143.289 115.277 144.188 115.286C145.088 115.295 145.951 115.644 146.603 116.263C146.922 116.569 147.348 116.737 147.789 116.73C148.231 116.723 148.651 116.542 148.96 116.227C149.268 115.91 149.438 115.483 149.431 115.041C149.425 114.599 149.244 114.178 148.927 113.87C148.174 113.154 147.264 112.623 146.27 112.32C147.257 108.933 146.867 107.43 145.95 104.613C145.769 104.062 145.594 103.509 145.427 102.953L145.327 102.62C144.113 98.5933 143.31 95.9366 145.617 92.1866C145.848 91.81 145.921 91.3568 145.818 90.9268C145.716 90.4967 145.447 90.1249 145.07 89.8933C144.693 89.6617 144.24 89.5892 143.81 89.6917C143.38 89.7942 143.008 90.0634 142.777 90.44C139.683 95.4666 140.82 99.23 142.137 103.587L142.237 103.92C142.433 104.567 142.613 105.133 142.78 105.643C143.603 108.18 143.853 109.03 142.847 112.097C141.588 112.326 140.42 112.908 139.48 113.777C139.168 114.081 138.988 114.495 138.978 114.93C138.968 115.366 139.129 115.788 139.426 116.106C139.723 116.425 140.133 116.614 140.568 116.634C141.003 116.654 141.428 116.503 141.753 116.213ZM162.97 106.263C163.96 106.266 164.938 106.049 165.833 105.627C166.233 105.438 166.542 105.099 166.692 104.683C166.842 104.267 166.82 103.808 166.632 103.408C166.443 103.008 166.104 102.699 165.688 102.55C165.272 102.4 164.813 102.422 164.413 102.61C163.594 102.984 162.663 103.035 161.808 102.753C160.953 102.47 160.235 101.875 159.8 101.087C159.701 100.886 159.563 100.708 159.393 100.562C159.224 100.417 159.027 100.306 158.814 100.238C158.601 100.17 158.377 100.146 158.155 100.166C157.932 100.186 157.716 100.251 157.519 100.356C157.322 100.462 157.148 100.606 157.008 100.78C156.868 100.954 156.764 101.154 156.703 101.369C156.642 101.584 156.625 101.809 156.652 102.031C156.68 102.253 156.751 102.467 156.863 102.66C157.463 103.78 158.357 104.663 159.397 105.277C157.607 109.627 158.623 114.247 159.453 116.697C159.517 116.912 159.623 117.112 159.766 117.285C159.908 117.458 160.084 117.6 160.283 117.703C160.482 117.807 160.7 117.869 160.923 117.886C161.147 117.904 161.371 117.876 161.584 117.804C161.796 117.733 161.992 117.619 162.16 117.47C162.327 117.321 162.463 117.14 162.559 116.937C162.654 116.734 162.708 116.514 162.717 116.29C162.726 116.066 162.69 115.843 162.61 115.633C162.05 113.973 160.963 109.78 162.603 106.213C162.73 106.22 162.847 106.263 162.97 106.263ZM178.96 137.693C178.947 137.474 178.891 137.26 178.795 137.063C178.699 136.866 178.565 136.69 178.4 136.545C178.236 136.4 178.044 136.29 177.836 136.22C177.628 136.149 177.409 136.121 177.19 136.137C176.391 136.192 175.588 136.089 174.829 135.833C174.07 135.577 173.369 135.174 172.766 134.647C172.163 134.119 171.67 133.478 171.315 132.759C170.961 132.041 170.752 131.259 170.7 130.46C170.663 130.022 170.456 129.615 170.125 129.326C169.793 129.037 169.363 128.888 168.923 128.91C168.483 128.942 168.073 129.146 167.782 129.479C167.492 129.812 167.345 130.246 167.373 130.687C167.51 132.653 168.26 134.427 169.4 135.87C166.72 139.023 163.21 139.92 161.253 140.15C159.523 140.357 158.01 140.18 156.26 139.973C154.657 139.79 152.843 139.58 150.6 139.647L150.583 139.65C150.517 138.697 150.29 137.307 149.567 136.15C149.318 135.807 148.949 135.572 148.533 135.492C148.117 135.411 147.687 135.491 147.328 135.716C146.97 135.941 146.71 136.294 146.601 136.703C146.493 137.112 146.543 137.547 146.743 137.92C147.19 138.637 147.273 139.78 147.273 140.337C145.593 140.94 144.14 141.827 142.827 142.683C140.48 144.21 138.63 145.417 135.847 144.79C133.327 144.213 130.803 144.097 128.663 144.397C128.33 143.56 127.803 142.56 126.99 141.79C126.669 141.486 126.24 141.323 125.798 141.335C125.356 141.348 124.937 141.535 124.633 141.857C124.33 142.178 124.166 142.607 124.179 143.049C124.191 143.491 124.379 143.91 124.7 144.213C124.987 144.483 125.213 144.877 125.397 145.27C121.72 146.783 119.877 149.313 119.79 149.437C119.613 149.686 119.508 149.978 119.487 150.283C119.465 150.587 119.528 150.892 119.668 151.163C119.808 151.435 120.02 151.662 120.281 151.821C120.542 151.98 120.841 152.063 121.147 152.063C121.41 152.064 121.67 152.002 121.905 151.884C122.14 151.765 122.344 151.592 122.5 151.38C122.517 151.353 124.347 148.903 127.957 147.913C129.823 147.4 132.5 147.443 135.11 148.037C135.84 148.203 136.517 148.26 137.173 148.27C137.483 148.997 137.603 149.86 137.62 150.18C137.645 150.605 137.831 151.004 138.14 151.297C138.449 151.589 138.858 151.752 139.283 151.753L139.373 151.75C139.813 151.727 140.226 151.53 140.521 151.204C140.817 150.877 140.971 150.447 140.95 150.007C140.894 149.23 140.749 148.463 140.517 147.72C142.053 147.163 143.39 146.293 144.647 145.477C146.553 144.233 148.357 143.057 150.713 142.98C152.687 142.91 154.313 143.1 155.883 143.283C157.463 143.467 159.017 143.587 160.73 143.487C161.033 144.33 161.01 145.457 160.963 145.833C160.935 146.068 160.957 146.306 161.027 146.532C161.097 146.757 161.215 146.966 161.371 147.143C161.528 147.32 161.72 147.462 161.935 147.56C162.15 147.658 162.384 147.709 162.62 147.71C163.024 147.709 163.414 147.562 163.718 147.295C164.021 147.029 164.217 146.661 164.27 146.26C164.392 145.167 164.326 144.061 164.073 142.99C167.115 142.183 169.84 140.474 171.89 138.087C173.543 139.107 175.472 139.588 177.41 139.463C177.628 139.449 177.841 139.392 178.037 139.295C178.233 139.198 178.408 139.064 178.552 138.899C178.696 138.735 178.806 138.544 178.876 138.337C178.946 138.13 178.974 137.911 178.96 137.693Z" fill="#E5779E"/>
</svg>
